<mxfile host="app.diagrams.net" modified="2022-04-11T08:43:09.222Z" agent="5.0 (Windows NT 10.0; Win64; x64) AppleWebKit/537.36 (KHTML, like Gecko) Chrome/100.0.4896.60 Safari/537.36" etag="pvwvewf0H6wAP3yJNVly" version="14.8.1" type="github">
  <diagram id="HvwziTKcCLlKrL8vpyg3" name="第 1 页">
    <mxGraphModel dx="926" dy="493" grid="1" gridSize="10" guides="1" tooltips="1" connect="1" arrows="1" fold="1" page="1" pageScale="1" pageWidth="850" pageHeight="1100" math="0" shadow="0">
      <root>
        <mxCell id="0" />
        <mxCell id="1" parent="0" />
        <mxCell id="HIfgupwb3N_OvXPtriaw-1" value="上游传输文件" style="shape=parallelogram;html=1;strokeWidth=2;perimeter=parallelogramPerimeter;whiteSpace=wrap;rounded=1;arcSize=12;size=0.23;" vertex="1" parent="1">
          <mxGeometry x="80" y="250" width="100" height="40" as="geometry" />
        </mxCell>
        <mxCell id="HIfgupwb3N_OvXPtriaw-2" value="CD获取文件" style="strokeWidth=2;html=1;shape=mxgraph.flowchart.document2;whiteSpace=wrap;size=0.25;" vertex="1" parent="1">
          <mxGeometry x="310" y="60" width="100" height="40" as="geometry" />
        </mxCell>
        <mxCell id="HIfgupwb3N_OvXPtriaw-4" value="文件是否传输完成？" style="strokeWidth=2;html=1;shape=mxgraph.flowchart.decision;whiteSpace=wrap;" vertex="1" parent="1">
          <mxGeometry x="310" y="130" width="100" height="70" as="geometry" />
        </mxCell>
      </root>
    </mxGraphModel>
  </diagram>
</mxfile>
